<svg width="50" height="50" viewBox="0 0 50 50" fill="none" xmlns="http://www.w3.org/2000/svg">
<path d="M12.5001 4.16666H37.5001C39.7102 4.16666 41.8298 5.04463 43.3926 6.60743C44.9554 8.17024 45.8334 10.2899 45.8334 12.5V37.5C45.8334 39.7101 44.9554 41.8297 43.3926 43.3925C41.8298 44.9554 39.7102 45.8333 37.5001 45.8333H12.5001C10.2899 45.8333 8.17033 44.9554 6.60753 43.3925C5.04472 41.8297 4.16675 39.7101 4.16675 37.5V12.5C4.16675 10.2899 5.04472 8.17024 6.60753 6.60743C8.17033 5.04463 10.2899 4.16666 12.5001 4.16666ZM12.5001 8.33332C11.395 8.33332 10.3352 8.77231 9.5538 9.55371C8.7724 10.3351 8.33342 11.3949 8.33342 12.5V37.5C8.33342 38.6051 8.7724 39.6649 9.5538 40.4463C10.3352 41.2277 11.395 41.6667 12.5001 41.6667H37.5001C38.6052 41.6667 39.665 41.2277 40.4464 40.4463C41.2278 39.6649 41.6668 38.6051 41.6668 37.5V12.5C41.6668 11.3949 41.2278 10.3351 40.4464 9.55371C39.665 8.77231 38.6052 8.33332 37.5001 8.33332H12.5001ZM27.9459 25L33.8397 30.8917C34.2306 31.2826 34.4502 31.8128 34.4502 32.3656C34.4502 32.9185 34.2306 33.4487 33.8397 33.8396C33.4487 34.2305 32.9185 34.4501 32.3657 34.4501C31.8129 34.4501 31.2827 34.2305 30.8918 33.8396L25.0001 27.9458L19.1084 33.8396C18.7175 34.2305 18.1873 34.4501 17.6345 34.4501C17.0816 34.4501 16.5514 34.2305 16.1605 33.8396C15.7696 33.4487 15.55 32.9185 15.55 32.3656C15.55 32.0919 15.6039 31.8208 15.7086 31.5679C15.8134 31.315 15.9669 31.0852 16.1605 30.8917L22.0543 25L16.1605 19.1083C15.7696 18.7174 15.55 18.1872 15.55 17.6344C15.55 17.3606 15.6039 17.0896 15.7086 16.8367C15.8134 16.5838 15.9669 16.354 16.1605 16.1604C16.3541 15.9668 16.5839 15.8133 16.8368 15.7085C17.0897 15.6038 17.3607 15.5499 17.6345 15.5499C18.1873 15.5499 18.7175 15.7695 19.1084 16.1604L25.0001 22.0542L30.8918 16.1604C31.2827 15.7695 31.8129 15.5499 32.3657 15.5499C32.9185 15.5499 33.4487 15.7695 33.8397 16.1604C34.2306 16.5513 34.4502 17.0815 34.4502 17.6344C34.4502 18.1872 34.2306 18.7174 33.8397 19.1083L27.9459 25Z" fill="#F29F05"/>
</svg>
