<svg width="41" height="40" viewBox="0 0 41 40" fill="none" xmlns="http://www.w3.org/2000/svg">
<path d="M27.5624 12.0969C27.0037 11.7694 26.4581 11.6038 26.0268 11.6038C25.5981 11.6038 25.2843 11.7694 25.1893 12.0969C24.9956 12.7525 25.7493 13.815 26.8681 14.4706C27.4281 14.7994 27.9731 14.9631 28.4031 14.9631C28.8318 14.9631 29.1456 14.7994 29.2431 14.4706C29.4349 13.815 28.6824 12.7525 27.5624 12.0969Z" fill="url(#paint0_linear_664_1504)"/>
<path d="M18.7063 30.09C18.3032 29.9456 17.7351 29.9169 17.0963 30.0375C15.8213 30.2819 14.7563 31.0319 14.717 31.7137C14.697 32.0544 14.9382 32.315 15.3432 32.4581C15.7476 32.6025 16.3163 32.63 16.9532 32.5087C18.2288 32.2662 19.2945 31.5169 19.3338 30.8331C19.3538 30.4925 19.1126 30.2325 18.7063 30.09Z" fill="url(#paint1_linear_664_1504)"/>
<path d="M24.8764 28.7019C24.4726 28.5588 23.9026 28.5288 23.2664 28.6507C21.992 28.8938 20.9276 29.6419 20.8882 30.3257C20.8695 30.6669 21.1101 30.9263 21.5145 31.07C21.9189 31.2138 22.4882 31.2419 23.1245 31.1219C24.4014 30.8782 25.4632 30.1294 25.5039 29.4463C25.5214 29.105 25.2814 28.8463 24.8764 28.7019Z" fill="url(#paint2_linear_664_1504)"/>
<path d="M30.7912 27.4931C30.388 27.35 29.8174 27.3213 29.1799 27.4425C27.9068 27.6856 26.8412 28.4344 26.803 29.1181C26.7843 29.4588 27.0243 29.7188 27.4293 29.8625C27.833 30.0063 28.403 30.0344 29.0405 29.9131C30.3162 29.67 31.3793 28.9213 31.4187 28.2388C31.4374 27.8969 31.1962 27.6375 30.7912 27.4931Z" fill="url(#paint3_linear_664_1504)"/>
<path d="M13.8625 16.4249C13.525 16.6899 13.1968 17.1562 12.9568 17.7599C12.4806 18.9674 12.5443 20.2662 13.0987 20.6643C13.3775 20.8631 13.7262 20.7999 14.0637 20.5349C14.4031 20.2699 14.7312 19.8037 14.97 19.2006C15.4462 17.9937 15.3831 16.6931 14.8281 16.2949C14.55 16.0962 14.2006 16.1593 13.8625 16.4249Z" fill="url(#paint4_linear_664_1504)"/>
<path d="M6.9874 14.3318C6.64803 14.5968 6.3199 15.0618 6.08115 15.6656C5.60365 16.8725 5.66678 18.1731 6.22428 18.57C6.50053 18.7693 6.84928 18.705 7.18865 18.44C7.52615 18.175 7.85428 17.7093 8.09303 17.1056C8.57053 15.8993 8.50678 14.5987 7.95115 14.2C7.67365 14.0018 7.3249 14.0656 6.9874 14.3318Z" fill="url(#paint5_linear_664_1504)"/>
<path d="M39.0575 22.3269L34.9606 9.97193C34.3419 8.10568 32.3956 6.15755 30.5281 5.5388L18.1719 1.44193C17.4006 1.1863 16.7075 1.18755 16.1737 1.43943C15.5962 1.5963 14.9362 1.84505 14.26 2.16005C13.3356 2.59068 12.1956 3.24505 11.7119 3.81443C11.6575 3.8611 11.6047 3.90967 11.5537 3.96005L3.26687 12.2488C1.97875 13.5363 1.40562 15.9863 1.9625 17.8269L5.56375 29.7544C5.62937 29.9726 5.71062 30.1782 5.80562 30.3663C6.09562 31.2488 7.28437 32.4857 7.64937 32.8507C8.01562 33.2163 9.25437 34.4082 10.1369 34.6976C10.3244 34.7907 10.53 34.8719 10.7469 34.9376L22.6737 38.5388C23.1362 38.6794 23.6444 38.7501 24.185 38.7501H24.1856C25.735 38.7501 27.3306 38.1551 28.2506 37.2351L36.5394 28.9457C36.5919 28.8932 36.6394 28.8407 36.6856 28.7876C37.2556 28.3019 37.91 27.1619 38.3394 26.2407C38.6562 25.5613 38.905 24.8994 39.0619 24.3213C39.3144 23.7844 39.3131 23.0969 39.0575 22.3269ZM7.69312 31.1044C7.23875 30.5519 6.99812 30.1426 6.95 29.9726L6.90375 29.8576C6.82928 29.7127 6.76859 29.5612 6.7225 29.4051L3.12 17.4769C2.69562 16.0738 3.15437 14.0713 4.12187 13.1044L12.4106 4.81505C12.4531 4.77193 12.4981 4.73443 12.5412 4.69693L12.6212 4.61318C12.7625 4.43443 13.1456 4.14318 13.6956 3.81943C14.22 3.98505 14.6662 4.48005 14.9081 5.2838L18.5094 17.2119C18.9994 18.8326 18.4831 21.0613 17.3562 22.1882L9.06875 30.4769C8.6175 30.9276 8.13875 31.1232 7.69312 31.1044ZM35.885 27.8794L35.7994 27.9626C35.7625 28.0051 35.7262 28.0482 35.6831 28.0907L27.3956 36.3801C26.7019 37.0738 25.4112 37.5394 24.1856 37.5394H24.185C23.792 37.5436 23.4006 37.4901 23.0231 37.3807L11.0962 33.7794C10.9401 33.7329 10.7886 33.672 10.6437 33.5976L10.5281 33.5526C10.3587 33.5051 9.94937 33.2632 9.39687 32.8088C9.3775 32.3626 9.57187 31.8844 10.0237 31.4326L18.3106 23.1444C19.4381 22.0169 21.6656 21.5007 23.2869 21.9907L35.2137 25.5926C36.0187 25.8357 36.5137 26.2826 36.6787 26.8069C36.3562 27.3557 36.0637 27.7376 35.885 27.8794ZM37.9562 23.8294L37.9087 23.9544C37.85 24.1776 37.7694 24.4251 37.6762 24.6813C37.3406 24.7457 36.9281 24.7107 36.45 24.5519L24.0944 20.4551C22.4144 19.8988 20.6006 18.0851 20.0456 16.4057L15.9487 4.05005C15.7906 3.57193 15.755 3.16005 15.8194 2.8238C16.0744 2.73193 16.32 2.6513 16.5425 2.59255L16.6694 2.54318C16.7775 2.48693 16.9169 2.45818 17.0837 2.45818C17.2912 2.45818 17.5294 2.50255 17.7925 2.58943L30.1481 6.6863C31.6406 7.1813 33.3181 8.86005 33.8125 10.3519L37.91 22.7069C38.065 23.1782 38.0825 23.5863 37.9562 23.8294Z" fill="url(#paint6_linear_664_1504)"/>
<defs>
<linearGradient id="paint0_linear_664_1504" x1="25.4329" y1="16.131" x2="25.5761" y2="11.7269" gradientUnits="userSpaceOnUse">
<stop stop-color="#84A83B"/>
<stop offset="1" stop-color="#8CB140"/>
</linearGradient>
<linearGradient id="paint1_linear_664_1504" x1="15.0234" y1="33.4971" x2="15.1012" y2="30.0563" gradientUnits="userSpaceOnUse">
<stop stop-color="#84A83B"/>
<stop offset="1" stop-color="#8CB140"/>
</linearGradient>
<linearGradient id="paint2_linear_664_1504" x1="21.1947" y1="32.1089" x2="21.2725" y2="28.6689" gradientUnits="userSpaceOnUse">
<stop stop-color="#84A83B"/>
<stop offset="1" stop-color="#8CB140"/>
</linearGradient>
<linearGradient id="paint3_linear_664_1504" x1="27.1095" y1="30.9012" x2="27.1873" y2="27.4607" gradientUnits="userSpaceOnUse">
<stop stop-color="#84A83B"/>
<stop offset="1" stop-color="#8CB140"/>
</linearGradient>
<linearGradient id="paint4_linear_664_1504" x1="12.8141" y1="22.3811" x2="13.2295" y2="16.3694" gradientUnits="userSpaceOnUse">
<stop stop-color="#84A83B"/>
<stop offset="1" stop-color="#8CB140"/>
</linearGradient>
<linearGradient id="paint5_linear_664_1504" x1="5.93738" y1="20.2868" x2="6.35269" y2="14.2752" gradientUnits="userSpaceOnUse">
<stop stop-color="#84A83B"/>
<stop offset="1" stop-color="#8CB140"/>
</linearGradient>
<linearGradient id="paint6_linear_664_1504" x1="4.24709" y1="51.7871" x2="6.20346" y2="2.65106" gradientUnits="userSpaceOnUse">
<stop stop-color="#84A83B"/>
<stop offset="1" stop-color="#8CB140"/>
</linearGradient>
</defs>
</svg>
