<svg width="40" height="40" viewBox="0 0 40 40" fill="none" xmlns="http://www.w3.org/2000/svg">
<path d="M21.3333 14.6666H26.6666H21.3333ZM11.9999 16V24V16ZM7.99992 20H15.9999H7.99992ZM26.6666 25.3333H31.9999H26.6666ZM1.33325 9.33329V30.6666C1.33325 31.3739 1.6142 32.0521 2.1143 32.5522C2.6144 33.0523 3.29267 33.3333 3.99992 33.3333H35.9999C36.7072 33.3333 37.3854 33.0523 37.8855 32.5522C38.3856 32.0521 38.6666 31.3739 38.6666 30.6666V9.33329C38.6666 8.62605 38.3856 7.94777 37.8855 7.44767C37.3854 6.94758 36.7072 6.66663 35.9999 6.66663H3.99992C3.29267 6.66663 2.6144 6.94758 2.1143 7.44767C1.6142 7.94777 1.33325 8.62605 1.33325 9.33329V9.33329Z" stroke="url(#paint0_linear_664_1525)" stroke-width="2.13333"/>
<defs>
<linearGradient id="paint0_linear_664_1525" x1="3.81923" y1="42.6041" x2="4.81373" y2="7.63557" gradientUnits="userSpaceOnUse">
<stop stop-color="#84A83B"/>
<stop offset="1" stop-color="#8CB140"/>
</linearGradient>
</defs>
</svg>
