<svg width="28" height="28" viewBox="0 0 28 28" fill="none" xmlns="http://www.w3.org/2000/svg">
<path d="M25.8483 5.50269C26.447 5.70872 26.9655 6.09172 27.3324 6.59878C27.6992 7.10584 27.8962 7.71194 27.8961 8.33335V21.6667C27.8961 23.1696 27.2864 24.6109 26.2012 25.6736C25.116 26.7363 23.6442 27.3334 22.1095 27.3334H8.49396C7.8594 27.3334 7.24048 27.1405 6.72268 26.7813C6.20489 26.4221 5.81378 25.9143 5.60339 25.328L8.45856 25.3334H22.1095C23.1025 25.3334 24.0549 24.947 24.7571 24.2594C25.4593 23.5718 25.8538 22.6391 25.8538 21.6667V8.33335L25.8483 8.26535V5.50269ZM21.4233 0.666687C22.2358 0.666687 23.015 0.982758 23.5895 1.54537C24.164 2.10798 24.4868 2.87104 24.4868 3.66669V20.996C24.4868 21.7917 24.164 22.5547 23.5895 23.1173C23.015 23.68 22.2358 23.996 21.4233 23.996H3.72853C2.91604 23.996 2.13683 23.68 1.56232 23.1173C0.987799 22.5547 0.665039 21.7917 0.665039 20.996V3.66669C0.665039 2.87104 0.987799 2.10798 1.56232 1.54537C2.13683 0.982758 2.91604 0.666687 3.72853 0.666687H21.4246H21.4233ZM21.4233 2.66669H3.72853C3.4577 2.66669 3.19796 2.77204 3.00646 2.95958C2.81495 3.14712 2.70737 3.40147 2.70737 3.66669V20.996C2.70737 21.548 3.16485 21.996 3.72853 21.996H21.4246C21.6955 21.996 21.9552 21.8907 22.1467 21.7031C22.3382 21.5156 22.4458 21.2612 22.4458 20.996V3.66669C22.4458 3.40147 22.3382 3.14712 22.1467 2.95958C21.9552 2.77204 21.6955 2.66669 21.4246 2.66669H21.4233ZM12.5786 7.00002C12.8494 7.00002 13.1092 7.10538 13.3007 7.29291C13.4922 7.48045 13.5998 7.7348 13.5998 8.00002V11.3334H17.0037C17.2745 11.3334 17.5342 11.4387 17.7257 11.6262C17.9172 11.8138 18.0248 12.0681 18.0248 12.3334C18.0248 12.5986 17.9172 12.8529 17.7257 13.0405C17.5342 13.228 17.2745 13.3334 17.0037 13.3334H13.5998V16.6667C13.5998 16.9319 13.4922 17.1863 13.3007 17.3738C13.1092 17.5613 12.8494 17.6667 12.5786 17.6667C12.3078 17.6667 12.0481 17.5613 11.8565 17.3738C11.665 17.1863 11.5575 16.9319 11.5575 16.6667V13.3334H8.15357C7.88275 13.3334 7.62301 13.228 7.4315 13.0405C7.24 12.8529 7.13241 12.5986 7.13241 12.3334C7.13241 12.0681 7.24 11.8138 7.4315 11.6262C7.62301 11.4387 7.88275 11.3334 8.15357 11.3334H11.5575V8.00002C11.5575 7.7348 11.665 7.48045 11.8565 7.29291C12.0481 7.10538 12.3078 7.00002 12.5786 7.00002Z" fill="url(#paint0_linear_714_1795)"/>
<defs>
<linearGradient id="paint0_linear_714_1795" x1="2.47832" y1="36.6042" x2="3.8408" y2="1.66048" gradientUnits="userSpaceOnUse">
<stop stop-color="#84A83B"/>
<stop offset="1" stop-color="#8CB140"/>
</linearGradient>
</defs>
</svg>
