<svg width="41" height="40" viewBox="0 0 41 40" fill="none" xmlns="http://www.w3.org/2000/svg">
<path d="M18.0833 4.21996C18.7596 3.65 19.6156 3.3374 20.5 3.3374C21.3844 3.3374 22.2404 3.65 22.9167 4.21996L34.1667 13.7066C35.0117 14.42 35.5 15.4683 35.5 16.5733V32.9116C35.5 33.6852 35.1927 34.427 34.6457 34.974C34.0987 35.521 33.3569 35.8283 32.5833 35.8283H26.75C25.9765 35.8283 25.2346 35.521 24.6876 34.974C24.1406 34.427 23.8333 33.6852 23.8333 32.9116V23.745C23.8333 23.6345 23.7894 23.5285 23.7113 23.4503C23.6332 23.3722 23.5272 23.3283 23.4167 23.3283H17.5833C17.4728 23.3283 17.3668 23.3722 17.2887 23.4503C17.2106 23.5285 17.1667 23.6345 17.1667 23.745V32.9116C17.1667 33.6852 16.8594 34.427 16.3124 34.974C15.7654 35.521 15.0235 35.8283 14.25 35.8283H8.41667C8.03364 35.8283 7.65437 35.7529 7.30051 35.6063C6.94664 35.4597 6.62511 35.2449 6.35427 34.974C6.08343 34.7032 5.86859 34.3817 5.72202 34.0278C5.57544 33.6739 5.5 33.2946 5.5 32.9116V16.5733C5.5 15.4683 5.98833 14.42 6.83333 13.7066L18.0833 4.21996ZM21.305 6.13163C21.0797 5.94193 20.7946 5.83791 20.5 5.83791C20.2054 5.83791 19.9203 5.94193 19.695 6.13163L8.445 15.6166C8.30578 15.7338 8.19383 15.88 8.11697 16.045C8.04011 16.2099 8.00019 16.3896 8 16.5716V32.91C8 33.14 8.18667 33.3266 8.41667 33.3266H14.25C14.3605 33.3266 14.4665 33.2827 14.5446 33.2046C14.6228 33.1264 14.6667 33.0205 14.6667 32.91V23.7433C14.6667 22.1316 15.9733 20.8266 17.5833 20.8266H23.4167C25.0267 20.8266 26.3333 22.1316 26.3333 23.7433V32.91C26.3333 33.14 26.52 33.3266 26.75 33.3266H32.5833C32.6938 33.3266 32.7998 33.2827 32.878 33.2046C32.9561 33.1264 33 33.0205 33 32.91V16.5733C32.9998 16.3913 32.9599 16.2116 32.883 16.0466C32.8062 15.8817 32.6942 15.7355 32.555 15.6183L21.305 6.13163Z" fill="url(#paint0_linear_664_1513)"/>
<defs>
<linearGradient id="paint0_linear_664_1513" x1="7.49766" y1="47.124" x2="9.33298" y2="4.56266" gradientUnits="userSpaceOnUse">
<stop stop-color="#84A83B"/>
<stop offset="1" stop-color="#8CB140"/>
</linearGradient>
</defs>
</svg>
