<svg width="34" height="32" viewBox="0 0 34 32" fill="none" xmlns="http://www.w3.org/2000/svg">
<path d="M29.8564 8.86252C29.4286 7.89263 28.8119 7.01373 28.0406 6.27502C27.2688 5.5341 26.3588 4.9453 25.3601 4.54065C24.3245 4.11938 23.2137 3.90374 22.0923 3.90627C20.5191 3.90627 18.9842 4.32815 17.6503 5.12502C17.3312 5.31565 17.028 5.52502 16.7408 5.75315C16.4536 5.52502 16.1504 5.31565 15.8313 5.12502C14.4974 4.32815 12.9625 3.90627 11.3893 3.90627C10.2564 3.90627 9.15865 4.11877 8.12153 4.54065C7.11951 4.9469 6.21642 5.53127 5.44097 6.27502C4.66871 7.0129 4.0518 7.89201 3.62522 8.86252C3.18165 9.87189 2.95508 10.9438 2.95508 12.0469C2.95508 13.0875 3.17208 14.1719 3.60288 15.275C3.96348 16.1969 4.48044 17.1531 5.14101 18.1188C6.1877 19.6469 7.6269 21.2406 9.41394 22.8563C12.3753 25.5344 15.308 27.3844 15.4324 27.4594L16.1887 27.9344C16.5238 28.1438 16.9546 28.1438 17.2897 27.9344L18.046 27.4594C18.1704 27.3813 21.0999 25.5344 24.0645 22.8563C25.8515 21.2406 27.2907 19.6469 28.3374 18.1188C28.998 17.1531 29.5181 16.1969 29.8755 15.275C30.3063 14.1719 30.5233 13.0875 30.5233 12.0469C30.5265 10.9438 30.2999 9.87189 29.8564 8.86252ZM16.7408 25.4625C16.7408 25.4625 5.38034 18.3344 5.38034 12.0469C5.38034 8.86252 8.07047 6.28127 11.3893 6.28127C13.722 6.28127 15.7452 7.55627 16.7408 9.41877C17.7364 7.55627 19.7596 6.28127 22.0923 6.28127C25.4111 6.28127 28.1012 8.86252 28.1012 12.0469C28.1012 18.3344 16.7408 25.4625 16.7408 25.4625Z" fill="url(#paint0_linear_714_1792)"/>
<defs>
<linearGradient id="paint0_linear_714_1792" x1="4.79082" y1="36.4995" x2="5.89814" y2="4.79806" gradientUnits="userSpaceOnUse">
<stop stop-color="#84A83B"/>
<stop offset="1" stop-color="#8CB140"/>
</linearGradient>
</defs>
</svg>
