<svg width="27" height="28" viewBox="0 0 27 28" fill="none" xmlns="http://www.w3.org/2000/svg">
<path d="M24.8281 5.50263C25.4143 5.70866 25.9222 6.09166 26.2814 6.59872C26.6406 7.10578 26.8335 7.71188 26.8334 8.33329V21.6666C26.8334 23.1695 26.2364 24.6109 25.1737 25.6736C24.111 26.7363 22.6696 27.3333 21.1667 27.3333H7.83342C7.212 27.3334 6.60591 27.1405 6.09884 26.7813C5.59178 26.422 5.20878 25.9142 5.00275 25.328L7.79875 25.3333H21.1667C22.1392 25.3333 23.0718 24.947 23.7595 24.2594C24.4471 23.5717 24.8334 22.6391 24.8334 21.6666V8.33329L24.8281 8.26529V5.50263ZM20.4947 0.666626C21.2904 0.666626 22.0535 0.982696 22.6161 1.54531C23.1787 2.10791 23.4947 2.87098 23.4947 3.66663V20.996C23.4947 21.7916 23.1787 22.5547 22.6161 23.1173C22.0535 23.6799 21.2904 23.996 20.4947 23.996H3.16675C2.3711 23.996 1.60804 23.6799 1.04543 23.1173C0.482819 22.5547 0.166748 21.7916 0.166748 20.996V3.66663C0.166748 2.87098 0.482819 2.10791 1.04543 1.54531C1.60804 0.982696 2.3711 0.666626 3.16675 0.666626H20.4961H20.4947ZM20.4947 2.66663H3.16675C2.90153 2.66663 2.64718 2.77198 2.45964 2.95952C2.2721 3.14706 2.16675 3.40141 2.16675 3.66663V20.996C2.16675 21.548 2.61475 21.996 3.16675 21.996H20.4961C20.7613 21.996 21.0157 21.8906 21.2032 21.7031C21.3907 21.5155 21.4961 21.2612 21.4961 20.996V3.66663C21.4961 3.40141 21.3907 3.14706 21.2032 2.95952C21.0157 2.77198 20.7613 2.66663 20.4961 2.66663H20.4947ZM11.8334 6.99996C12.0986 6.99996 12.353 7.10532 12.5405 7.29285C12.7281 7.48039 12.8334 7.73474 12.8334 7.99996V11.3333H16.1667C16.432 11.3333 16.6863 11.4387 16.8739 11.6262C17.0614 11.8137 17.1667 12.0681 17.1667 12.3333C17.1667 12.5985 17.0614 12.8529 16.8739 13.0404C16.6863 13.2279 16.432 13.3333 16.1667 13.3333H12.8334V16.6666C12.8334 16.9318 12.7281 17.1862 12.5405 17.3737C12.353 17.5613 12.0986 17.6666 11.8334 17.6666C11.5682 17.6666 11.3138 17.5613 11.1263 17.3737C10.9388 17.1862 10.8334 16.9318 10.8334 16.6666V13.3333H7.50008C7.23487 13.3333 6.98051 13.2279 6.79297 13.0404C6.60544 12.8529 6.50008 12.5985 6.50008 12.3333C6.50008 12.0681 6.60544 11.8137 6.79297 11.6262C6.98051 11.4387 7.23487 11.3333 7.50008 11.3333H10.8334V7.99996C10.8334 7.73474 10.9388 7.48039 11.1263 7.29285C11.3138 7.10532 11.5682 6.99996 11.8334 6.99996Z" fill="url(#paint0_linear_664_1501)"/>
<defs>
<linearGradient id="paint0_linear_664_1501" x1="1.94245" y1="36.6041" x2="3.33367" y2="1.66268" gradientUnits="userSpaceOnUse">
<stop stop-color="#84A83B"/>
<stop offset="1" stop-color="#8CB140"/>
</linearGradient>
</defs>
</svg>
