<svg width="32" height="32" viewBox="0 0 32 32" fill="none" xmlns="http://www.w3.org/2000/svg">
<path d="M13.1428 2.28577C16.0223 2.28577 18.7838 3.42964 20.8199 5.46575C22.8561 7.50186 23.9999 10.2634 23.9999 13.1429C23.9999 15.5223 23.2342 17.7223 21.9371 19.5121L29.2125 26.7875C29.5271 27.0975 29.7099 27.5169 29.7228 27.9583C29.7357 28.3998 29.5778 28.8292 29.2819 29.1571C28.986 29.4849 28.575 29.686 28.1346 29.7182C27.6941 29.7505 27.2582 29.6116 26.9176 29.3303L26.7874 29.2126L19.5119 21.9372C17.6607 23.2815 15.4306 24.0038 13.1428 24.0001C10.2633 24.0001 7.50174 22.8562 5.46563 20.8201C3.42952 18.784 2.28564 16.0224 2.28564 13.1429C2.28564 10.2634 3.42952 7.50186 5.46563 5.46575C7.50174 3.42964 10.2633 2.28577 13.1428 2.28577ZM13.1428 5.71434C11.1726 5.71434 9.28312 6.49699 7.88999 7.89012C6.49687 9.28324 5.71422 11.1727 5.71422 13.1429C5.71422 15.1131 6.49687 17.0026 7.88999 18.3957C9.28312 19.7888 11.1726 20.5715 13.1428 20.5715C15.113 20.5715 17.0025 19.7888 18.3956 18.3957C19.7887 17.0026 20.5714 15.1131 20.5714 13.1429C20.5714 11.1727 19.7887 9.28324 18.3956 7.89012C17.0025 6.49699 15.113 5.71434 13.1428 5.71434Z" fill="#F29F05"/>
</svg>
